{"title":"Cardinal Burns S02E04","uid":9858068,"size":157467631,"categoryP":"video","categoryS":"tv_shows","magnet":"?xt=urn:btih:017982c9c62ceab4203b75270777183ea39ab4d7&amp;dn=Cardinal+Burns+S02E04&amp;tr=udp%3A%2F%2Ftracker.openbittorrent.com%3A80&amp;tr=udp%3A%2F%2Fopen.demonii.com%3A1337&amp;tr=udp%3A%2F%2Ftracker.coppersurfer.tk%3A6969&amp;tr=udp%3A%2F%2Fexodus.desync.com%3A6969","seeders":1,"leechers":0,"uploader":"Pyre8Storm","files":-1,"time":1396246249,"description":"Cardinal Burns is a British television sketch show starring Seb Cardinal and Dustin Demri-Burns, shown on E4. The first series began on 8 May 2012.\n\nWARNING!! This episode has a very dark intro, just FYI.\n\n\nFormat                                   : MPEG-4\nFormat profile                           : Base Media / Version 2\nCodec ID                                 : mp42\nFile size                                : 150 MiB\nDuration                                 : 22mn 54s\nOverall bit rate mode                    : Variable\nOverall bit rate                         : 916 Kbps\nEncoded date                             : UTC 2014-03-25 12:57:07\nTagged date                              : UTC 2014-03-25 13:33:47\nWriting application                      : HandBrake 0.9.9 2013052900\n\nVideo\nID                                       : 1\nFormat                                   : AVC\nFormat/Info                              : Advanced Video Codec\nFormat profile                           : &lt;a class=&quot;__cf_email__&quot; href=&quot;/cdn-cgi/l/email-protection&quot; data-cfemail=&quot;89c4e8e0e7c9c5bda7b9&quot;&gt;[email&amp;#160;protected]&lt;/a&gt;&lt;script cf-hash='f9e31' type=&quot;text/javascript&quot;&gt;\n/* &lt;![CDATA[ */!function(){try{var t=&quot;currentScript&quot;in document?document.currentScript:function(){for(var t=document.getElementsByTagName(&quot;script&quot;),e=t.length;e--;)if(t[e].getAttribute(&quot;cf-hash&quot;))return t[e]}();if(t&amp;&amp;t.previousSibling){var e,r,n,i,c=t.previousSibling,a=c.getAttribute(&quot;data-cfemail&quot;);if(a){for(e=&quot;&quot;,r=parseInt(a.substr(0,2),16),n=2;a.length-n;n+=2)i=parseInt(a.substr(n,2),16)^r,e+=String.fromCharCode(i);e=document.createTextNode(e),c.parentNode.replaceChild(e,c)}}}catch(u){}}();/* ]]&gt; */&lt;/script&gt;\nFormat settings, CABAC                   : Yes\nFormat settings, ReFrames                : 4 frames\nCodec ID                                 : avc1\nCodec ID/Info                            : Advanced Video Coding\nDuration                                 : 22mn 54s\nBit rate                                 : 752 Kbps\nWidth                                    : 720 pixels\nHeight                                   : 412 pixels\nDisplay aspect ratio                     : 16:9\nFrame rate mode                          : Constant\nFrame rate                               : 25.000 fps\nColor space                              : YUV\nChroma subsampling                       : 4:2:0\nBit depth                                : 8 bits\nScan type                                : Progressive\nBits/(Pixel*Frame)                       : 0.101\nStream size                              : 123 MiB (82%)\nWriting library                          : x264 core 130 r2273 \n\n\nAudio\nID                                       : 2\nFormat                                   : AAC\nFormat/Info                              : Advanced Audio Codec\nFormat profile                           : LC\nCodec ID                                 : 40\nDuration                                 : 22mn 54s\nBit rate mode                            : Variable\nBit rate                                 : 160 Kbps\nMaximum bit rate                         : 272 Kbps\nChannel(s)                               : 2 channels\nChannel positions                        : Front: L R\nSampling rate                            : 48.0 KHz\nCompression mode                         : Lossy\nStream size                              : 26.2 MiB (17%)\nEncoded date                             : UTC 2014-03-25 12:57:07\nTagged date                              : UTC 2014-03-25 13:33:47","torrent":{"xt":"urn:btih:017982c9c62ceab4203b75270777183ea39ab4d7","amp;dn":"Cardinal+Burns+S02E04","amp;tr":["udp%3A%2F%2Ftracker.openbittorrent.com%3A80","udp%3A%2F%2Fopen.demonii.com%3A1337","udp%3A%2F%2Ftracker.coppersurfer.tk%3A6969","udp%3A%2F%2Fexodus.desync.com%3A6969"],"infoHash":"017982c9c62ceab4203b75270777183ea39ab4d7","infoHashBuffer":{"type":"Buffer","data":[1,121,130,201,198,44,234,180,32,59,117,39,7,119,24,62,163,154,180,215]},"announce":[],"urlList":[]}}